<?xml version="1.0" standalone="no"?>
<!DOCTYPE svg PUBLIC "-//W3C//DTD SVG 20010904//EN"
 "http://www.w3.org/TR/2001/REC-SVG-20010904/DTD/svg10.dtd">
<svg version="1.0" xmlns="http://www.w3.org/2000/svg"
 width="100.000000pt" height="100.000000pt" viewBox="0 0 100.000000 100.000000"
 preserveAspectRatio="xMidYMid meet">

<g transform="translate(0.000000,100.000000) scale(0.100000,-0.100000)"
fill="#000000" stroke="none">
<path d="M218 615 c-4 -19 -1 -25 12 -25 16 0 16 -7 -6 -101 -13 -55 -24 -103
-24 -105 0 -2 18 -4 40 -4 l39 0 13 60 c13 65 22 62 32 -13 l7 -48 42 3 41 3
28 120 c15 66 27 123 28 128 0 4 -18 7 -39 7 l-40 0 -14 -62 -14 -63 -13 63
-13 62 -57 0 c-54 0 -58 -2 -62 -25z"/>
<path d="M588 616 c-4 -18 0 -26 12 -28 16 -3 15 -9 -3 -90 -11 -47 -17 -94
-14 -102 6 -14 22 -16 104 -14 93 3 98 4 101 26 3 21 0 22 -62 22 -66 0 -66 0
-60 25 3 13 11 48 18 77 10 47 15 53 39 56 19 2 27 -1 27 -12 0 -12 10 -16 40
-16 31 0 40 4 40 18 0 9 3 27 6 40 6 22 6 22 -119 22 -124 0 -125 0 -129 -24z"/>
<path d="M450 416 c0 -8 -3 -21 -6 -30 -5 -13 1 -16 34 -16 27 0 42 5 46 16
13 35 7 44 -34 44 -28 0 -40 -4 -40 -14z"/>
</g>
</svg>
